<svg xmlns="http://www.w3.org/2000/svg" width="28.8" height="23.3" viewBox="0 0 28.8 23.3"><path fill="#03A1FB" d="M12.8 2.6c-1.4.8-2.4 1.4-3.3 2-.8.5-1.7 1.3-2.5 2.2-.9.9-1.5 1.8-1.9 2.7-.4.9-.7 2.2-.9 3.7h2.1c1.8 0 3.2.4 4.2 1.3s1.5 2.2 1.5 3.9c0 1.2-.5 2.3-1.4 3.4-.9 1.1-2.2 1.6-3.7 1.6-2.5 0-4.2-.8-5.3-2.4C.5 19.3 0 17.1 0 14.5c0-1.9.4-3.6 1.2-5.1C2 7.8 3 6.5 4.1 5.3 5.3 4 6.6 3 7.9 2.1 9.2 1.2 10.3.5 11.2 0l1.6 2.6zm16 0c-1.4.8-2.4 1.4-3.3 2-.8.6-1.7 1.3-2.5 2.2-.8.9-1.5 1.8-1.9 2.7-.4.9-.7 2.1-.9 3.6h2.1c1.8 0 3.2.4 4.2 1.3s1.5 2.2 1.5 3.9c0 1.2-.5 2.3-1.4 3.4-.9 1.1-2.2 1.6-3.7 1.6-2.5 0-4.2-.8-5.3-2.4-1.1-1.6-1.6-3.8-1.6-6.4 0-1.9.4-3.6 1.2-5.1.8-1.6 1.8-2.9 2.9-4.1C21.3 4 22.6 3 23.9 2.1c1.3-.9 2.4-1.6 3.3-2.1l1.6 2.6z"/></svg>